<svg width="80" height="102" viewBox="0 0 80 102" fill="none" xmlns="http://www.w3.org/2000/svg">
<path d="M16.6382 60.9017C9.51665 50.5877 11.2751 42.4149 19.8701 33.0832C28.4651 23.7514 35.7928 23.0837 43.16 27.7495C50.5271 32.4154 50.9343 42.2732 52.04 47.8175C53.474 55.008 56.1753 59.1827 59.6133 65.0764C63.0513 70.9701 67.2654 75.8127 74.387 81.2152C80.0843 85.5373 80.3626 90.547 79.7896 92.5115C79.0529 94.7217 77.5794 99.142 72.9136 100.861C68.2477 102.58 61.3717 98.1597 57.6881 94.4761C54.0046 90.7925 46.3524 86.8634 39.4764 81.2152C32.6004 75.5671 23.7598 71.2157 16.6382 60.9017Z" fill="white"/>
<ellipse rx="6.36276" ry="10.6894" transform="matrix(-0.889403 0.457124 0.457124 0.889403 32.4084 12.4158)" fill="white"/>
<ellipse rx="4.26645" ry="6.86438" transform="matrix(-0.9012 0.433404 0.433404 0.9012 20.3052 19.248)" fill="white"/>
<ellipse rx="3.82877" ry="5.53341" transform="matrix(-0.9012 0.433404 0.433404 0.9012 6.6542 37.4324)" fill="white"/>
<ellipse rx="2.82148" ry="4.11136" transform="matrix(-0.930493 0.36631 0.36631 0.930493 4.1314 47.6265)" fill="white"/>
<ellipse rx="4.70569" ry="6.0367" transform="matrix(-0.919792 0.392407 0.392407 0.919792 12.2197 26.8865)" fill="white"/>
</svg>
